<svg width="30" height="30" viewBox="0 0 30 30" fill="none" xmlns="http://www.w3.org/2000/svg">
<path d="M8.0014 6.00012H10.0014V8.00012H8.0014V6.00012Z" fill="#565656"/>
<path d="M8.0014 9.99976H10.0014V11.9998H8.0014V9.99976Z" fill="#565656"/>
<path d="M8.0014 14H10.0014V16H8.0014V14Z" fill="#565656"/>
<path d="M8.0014 18.0001H10.0014V20.0001H8.0014V18.0001Z" fill="#565656"/>
<path d="M11.9993 6.00012H13.9993V8.00012H11.9993V6.00012Z" fill="#565656"/>
<path d="M19.9996 14H21.9996V16H19.9996V14Z" fill="#565656"/>
<path d="M19.9996 9.99976H21.9996V11.9998H19.9996V9.99976Z" fill="#565656"/>
<path d="M11.9993 9.99976H13.9993V11.9998H11.9993V9.99976Z" fill="#565656"/>
<path d="M19.9996 18.0001H21.9996V20.0001H19.9996V18.0001Z" fill="#565656"/>
<path d="M11.9993 14H13.9993V16H11.9993V14Z" fill="#565656"/>
<path d="M19.9996 21.9998H21.9996V23.9998H19.9996V21.9998Z" fill="#565656"/>
<path d="M11.9993 18.0001H13.9993V20.0001H11.9993V18.0001Z" fill="#565656"/>
<path d="M27 26H26V7C26 6.73478 25.8946 6.48043 25.7071 6.29289C25.5196 6.10536 25.2652 6 25 6H18V3C18 2.73478 17.8946 2.48043 17.7071 2.29289C17.5196 2.10536 17.2652 2 17 2H5C4.73478 2 4.48043 2.10536 4.29289 2.29289C4.10536 2.48043 4 2.73478 4 3V26H3C2.73478 26 2.48043 26.1054 2.29289 26.2929C2.10536 26.4804 2 26.7348 2 27C2 27.2652 2.10536 27.5196 2.29289 27.7071C2.48043 27.8946 2.73478 28 3 28H27C27.2652 28 27.5196 27.8946 27.7071 27.7071C27.8946 27.5196 28 27.2652 28 27C28 26.7348 27.8946 26.4804 27.7071 26.2929C27.5196 26.1054 27.2652 26 27 26ZM6 4H16V23C16 23.2652 16.1054 23.5196 16.2929 23.7071C16.4804 23.8946 16.7348 24 17 24C17.2652 24 17.5196 23.8946 17.7071 23.7071C17.8946 23.5196 18 23.2652 18 23V8H24V26H14V23C14 22.7348 13.8946 22.4804 13.7071 22.2929C13.5196 22.1054 13.2652 22 13 22H9C8.73478 22 8.48043 22.1054 8.29289 22.2929C8.10536 22.4804 8 22.7348 8 23V26H6V4ZM12 26H10V24H12V26Z" fill="#565656"/>
</svg>
