<svg width="30" height="30" viewBox="0 0 30 30" fill="none" xmlns="http://www.w3.org/2000/svg">
<path d="M15.2907 14.2388L4.98712 11.4484C5.845 7.43895 8.05742 4.64859 11.7237 2.97799C16.0131 1.02744 21.1062 1.94853 24.5287 5.26265C27.7525 8.38713 28.8993 13.3357 27.2558 17.4084L17.0245 14.6993C15.977 18.6365 14.9024 22.4924 13.9361 26.3664C13.6201 27.6487 13.0692 28.1725 11.7147 27.6397L15.2907 14.2297V14.2388ZM15.7603 12.4959L18.0088 4.07968C15.8686 3.54689 12.9157 7.28543 12.0398 11.4755L15.7603 12.4959ZM21.35 13.9678C21.955 11.1865 22.1447 8.5587 21.3319 5.93992C21.1513 5.35295 20.5734 4.88338 20.1851 4.35059L19.7516 4.54023L17.4941 12.9655L21.341 13.9678H21.35ZM26.1361 15.196C26.4882 12.0625 25.7658 9.46173 23.6888 7.02356C23.5895 9.10052 23.7069 10.9517 23.3547 12.7126C23.0477 14.2388 23.5173 14.7986 24.8989 14.9702C25.233 15.0154 25.5671 15.0876 26.1361 15.1869V15.196ZM13.3311 4.26932C10.3782 5.29877 8.35542 7.19513 7.19051 10.1842L9.94475 10.9156L13.3311 4.26932Z" fill="#565656"/>
<path d="M6.53178 27.8112C4.55414 27.7932 2.95578 26.1316 3.00093 24.154C3.04609 22.1763 4.71669 20.596 6.69432 20.6683C8.60874 20.7315 10.1529 22.3298 10.1439 24.2533C10.1439 26.2309 8.50038 27.8383 6.52275 27.8203L6.53178 27.8112ZM8.37395 24.2985C8.28365 23.1787 7.69668 22.5105 6.61305 22.4834C5.50232 22.4472 4.86117 23.1335 4.82505 24.2172C4.78893 25.3279 5.47523 25.9691 6.54984 26.0052C7.66959 26.0503 8.21141 25.3279 8.37395 24.2985Z" fill="#565656"/>
</svg>
