<svg width="14" height="22" viewBox="0 0 14 22" fill="none" xmlns="http://www.w3.org/2000/svg">
<rect width="14" height="22" fill="#1E1E1E"/>
<g id="Real Estate" clip-path="url(#clip0_0_1)">
<rect width="1440" height="3581" transform="translate(-222 -2080)" fill="white"/>
<g id="Frame 224">
<g id="Frame 217">
<g id="Frame 216">
<g id="Group 937">
<g id="bed 2">
<path id="Vector" d="M12.277 9.99572H14V10.8713C14 11.6761 13.8416 12.4731 13.5338 13.2166C13.226 13.9602 12.7748 14.6358 12.206 15.2049C11.6373 15.774 10.9621 16.2255 10.2189 16.5335C9.47582 16.8415 8.67935 17 7.875 17H6.125C4.50055 17 2.94263 16.3543 1.79397 15.2049C0.645311 14.0556 0 12.4967 0 10.8713V9.99572H10.527V6.07754C10.527 5.90329 10.4927 5.73075 10.426 5.56977C10.3593 5.40879 10.2616 5.26253 10.1385 5.13935C10.0153 5.01617 9.86908 4.91847 9.70817 4.85185C9.54726 4.78523 9.3748 4.75098 9.20066 4.75107H8.75987C8.35855 4.75107 8.01908 5.019 7.91118 5.38633C8.1824 5.54193 8.40774 5.76645 8.56439 6.03718C8.72104 6.3079 8.80346 6.61523 8.80329 6.92806H5.25C5.24995 6.61639 5.33179 6.31019 5.48734 6.04017C5.64288 5.77015 5.86664 5.5458 6.13618 5.38962C6.19778 4.73588 6.5009 4.12864 6.98626 3.6867C7.47161 3.24475 8.10429 2.99989 8.76053 3H9.20132C10.017 3 10.7993 3.32424 11.3761 3.90139C11.9529 4.47854 12.277 5.26132 12.277 6.07754V9.99572Z" fill="#869099"/>
</g>
</g>
</g>
</g>
</g>
</g>
<defs>
<clipPath id="clip0_0_1">
<rect width="1440" height="3581" fill="white" transform="translate(-222 -2080)"/>
</clipPath>
</defs>
</svg>
