<svg width="727" height="96" viewBox="0 0 727 96" fill="none" xmlns="http://www.w3.org/2000/svg">
<g clip-path="url(#clip0_937_316)">
<path d="M68.507 91.0728H12.803V57.2987H14.1498V89.7348H67.1601V17.3381H14.1498V27.1846H12.803V16H68.507V91.0728Z" fill="#2F3C53"/>
<path d="M68.507 91.0728H12.803V57.2987H14.1498V89.7348H67.1601V17.3381H14.1498V27.1846H12.803V16H68.507V91.0728Z" fill="#2F3C53"/>
<path d="M44.4618 57.645H3.13736V26.5155H44.4618V57.645ZM4.47628 56.307H43.1229V27.8536H4.48421V56.307H4.47628Z" fill="#2F3C53"/>
<path d="M43.5982 29.3884H3.61273V30.1755H43.5982V29.3884Z" fill="#2F3C53"/>
<path d="M38.504 54.0559H19.6798V31.0728H38.504V54.0559ZM20.4721 53.2688H37.7117V31.8599H20.4721V53.2688Z" fill="#C82021"/>
<path d="M29.488 31.6631H28.6957V53.2767H29.488V31.6631Z" fill="#C82021"/>
<path d="M38.7812 90.8131H19.4025V67.279H38.7812V90.8131ZM20.7493 89.475H37.4344V68.6171H20.7493V89.475Z" fill="#2F3C53"/>
<path d="M29.7653 68.1369H28.4185V89.7505H29.7653V68.1369Z" fill="#2F3C53"/>
<path d="M8.79411 47.9559H7.44727V53.5364H8.79411V47.9559Z" fill="#2F3C53"/>
<path d="M16.5028 47.9559H15.156V53.5364H16.5028V47.9559Z" fill="#2F3C53"/>
<path d="M47.9953 16.795H46.6484V90.1362H47.9953V16.795Z" fill="#2F3C53"/>
<path d="M63.1354 83.7843H51.3703V26.5313H63.1354V83.7843ZM52.1626 82.9973H62.3431V27.3184H52.1626V82.9973Z" fill="#C82021"/>
<path d="M62.4778 55.8662H51.6317V56.6533H62.4778V55.8662Z" fill="#C82021"/>
<path d="M57.7797 27.0508H56.9875V83.1311H57.7797V27.0508Z" fill="#C82021"/>
<path d="M77 96H0V90.1834H77V96ZM1.34685 94.6619H75.6532V91.5214H1.34685V94.6619Z" fill="#2F3C53"/>
<path d="M67.3106 86.7595H54.1115V87.5466H67.3106V86.7595Z" fill="#2F3C53"/>
<path d="M61.0438 22.769H47.8447V23.5561H61.0438V22.769Z" fill="#2F3C53"/>
<path d="M67.8335 19.6521H54.6344V20.4392H67.8335V19.6521Z" fill="#2F3C53"/>
<path d="M60.7824 84.2959H47.5833V85.083H60.7824V84.2959Z" fill="#2F3C53"/>
<path d="M13.4843 31.978H6.42526V32.7651H13.4843V31.978Z" fill="#2F3C53"/>
<path d="M15.568 34.0559H8.50891V34.843H15.568V34.0559Z" fill="#2F3C53"/>
<path d="M73.8468 90.7894H72.5V25.0358H68.0791V23.6978H73.8468V90.7894Z" fill="#2F3C53"/>
<path d="M10.9649 90.7895H9.61806V88.1763C9.61806 87.4522 9.02386 86.8697 8.3029 86.8697H3.85039C3.12151 86.8697 2.53523 87.4601 2.53523 88.1763V90.7895H1.18839V88.1763C1.18839 86.7202 2.3847 85.5317 3.85039 85.5317H8.31083C9.77651 85.5317 10.9728 86.7202 10.9728 88.1763V90.7895H10.9649Z" fill="#2F3C53"/>
<path d="M43.5982 47.1531H3.61273V48.4911H43.5982V47.1531Z" fill="#2F3C53"/>
<path d="M24.2115 47.9559H22.8647V53.5364H24.2115V47.9559Z" fill="#2F3C53"/>
<path d="M33.8851 47.9559H32.5382V53.5364H33.8851V47.9559Z" fill="#2F3C53"/>
<path d="M41.5938 47.9559H40.2469V53.5364H41.5938V47.9559Z" fill="#2F3C53"/>
<path d="M43.5982 52.9933H3.61273V54.3314H43.5982V52.9933Z" fill="#2F3C53"/>
</g>
<g clip-path="url(#clip1_937_316)">
<path d="M168.409 60.7933H123.822V26.8188H168.416V60.7933H168.409ZM125.167 59.442H167.056V28.1701H125.167V59.442Z" fill="#2F3C53"/>
<path d="M124.889 56.2226H93.2414V32.0175H124.889V56.2226ZM94.5942 54.8712H123.536V33.3688H94.5942V54.8712Z" fill="#2F3C53"/>
<path d="M195.536 60.2766H194.183V28.194H165.202V26.8426H195.536V60.2766Z" fill="#2F3C53"/>
<path d="M165.623 56.62H153.647V30.7536H165.623V56.62ZM154.443 55.8251H164.828V31.5485H154.443V55.8251Z" fill="#C82021"/>
<path d="M163.251 35.647L160.733 38.3881L161.319 38.9255L163.837 36.1845L163.251 35.647Z" fill="#C82021"/>
<path d="M163.459 33.3051L160.942 36.0462L161.528 36.5836L164.046 33.8426L163.459 33.3051Z" fill="#C82021"/>
<path d="M152.39 56.62H140.414V30.7536H152.39V56.62ZM141.21 55.8251H151.594V31.5485H141.21V55.8251Z" fill="#C82021"/>
<path d="M150.022 35.6495L147.505 38.3905L148.091 38.928L150.609 36.1869L150.022 35.6495Z" fill="#C82021"/>
<path d="M150.229 33.3132L147.713 36.0556L148.299 36.5928L150.816 33.8504L150.229 33.3132Z" fill="#C82021"/>
<path d="M139.156 56.62H127.18V30.7536H139.156V56.62ZM127.976 55.8251H138.361V31.5485H127.976V55.8251Z" fill="#C82021"/>
<path d="M136.792 35.654L134.274 38.3951L134.86 38.9325L137.378 36.1914L136.792 35.654Z" fill="#C82021"/>
<path d="M136.995 33.31L134.477 36.0511L135.063 36.5885L137.581 33.8475L136.995 33.31Z" fill="#C82021"/>
<path d="M190.093 52.6216H172.817V31.4213H190.093V52.6137V52.6216ZM173.613 51.8267H189.297V32.2162H173.613V51.8188V51.8267Z" fill="#C82021"/>
<path d="M209.334 60.2766H207.989V55.7615H167.804V54.4102H209.334V60.2766Z" fill="#2F3C53"/>
<path d="M204.56 55.0859H203.207V60.5469H204.56V55.0859Z" fill="#2F3C53"/>
<path d="M199.093 55.0859H197.74V60.5469H199.093V55.0859Z" fill="#2F3C53"/>
<path d="M193.626 55.0859H192.273V60.5469H193.626V55.0859Z" fill="#2F3C53"/>
<path d="M188.159 55.0859H186.806V60.5469H188.159V55.0859Z" fill="#2F3C53"/>
<path d="M182.692 55.0859H181.34V60.5469H182.692V55.0859Z" fill="#2F3C53"/>
<path d="M177.225 55.0859H175.873V60.5469H177.225V55.0859Z" fill="#2F3C53"/>
<path d="M171.767 55.0859H170.414V60.5469H171.767V55.0859Z" fill="#2F3C53"/>
<path d="M187.068 36.5151L183.72 39.8595L184.283 40.4216L187.631 37.0771L187.068 36.5151Z" fill="#C82021"/>
<path d="M187.337 33.6509L183.989 36.9953L184.552 37.5574L187.9 34.213L187.337 33.6509Z" fill="#C82021"/>
<path d="M230.462 81.8506C227.263 81.8506 225.894 79.5135 224.565 77.256C223.865 76.0556 223.141 74.8235 222.122 73.806C219.719 71.4054 220.674 67.9316 222.862 65.7456C225.05 63.5596 228.528 62.5978 230.931 65.0064C231.95 66.0239 233.183 66.7472 234.385 67.4467C236.645 68.7663 238.984 70.1335 238.984 73.337C238.984 78.035 235.156 81.8585 230.454 81.8585L230.462 81.8506Z" fill="#4AC0B3"/>
<path d="M231.48 90.7297H230.127V76.9539L227.39 74.2115L228.345 73.2576L231.48 76.3895V90.7297Z" fill="#2F3C53"/>
<path d="M232.517 77.5578L230.193 79.8792L231.149 80.8348L233.473 78.5134L232.517 77.5578Z" fill="#2F3C53"/>
<path d="M109.204 81.8506C106.005 81.8506 104.637 79.5135 103.308 77.256C102.607 76.0636 101.883 74.8235 100.865 73.806C99.5915 72.5342 99.1539 70.841 99.6393 69.0366C100.284 66.6359 102.496 64.4181 104.907 63.7743C106.714 63.2894 108.408 63.7266 109.682 64.9984C110.7 66.0159 111.934 66.7393 113.135 67.4388C115.395 68.7584 117.735 70.1256 117.735 73.3291C117.735 78.027 113.907 81.8506 109.204 81.8506Z" fill="#4AC0B3"/>
<path d="M111.255 77.5546L108.931 79.8761L109.887 80.8316L112.211 78.5102L111.255 77.5546Z" fill="#2F3C53"/>
<path d="M110.215 90.7297H108.87V76.9539L106.125 74.2115L107.08 73.2576L110.215 76.3895V90.7297Z" fill="#2F3C53"/>
<path d="M125.175 57.5819H123.822V60.4913H125.175V57.5819Z" fill="#2F3C53"/>
<path d="M197.08 27.8601H121.045V21H197.08V27.8601ZM122.398 26.5087H195.727V22.3514H122.398V26.5167V26.5087Z" fill="#2F3C53"/>
<path d="M219.504 91.6121H123.631V59.3545H219.512V91.6121H219.504ZM124.976 90.2607H218.151V60.7059H124.984V90.2607H124.976Z" fill="#2F3C53"/>
<path d="M153.623 91.1033H134.159V67.3354H153.623V91.1033ZM135.512 89.752H152.271V68.6868H135.512V89.752Z" fill="#2F3C53"/>
<path d="M144.576 68.2019H143.223V90.0302H144.576V68.2019Z" fill="#2F3C53"/>
<path d="M167.995 88.8299H156.019V62.9634H167.995V88.8299ZM156.814 88.035H167.199V63.7584H156.814V88.035Z" fill="#C82021"/>
<path d="M165.626 67.8677L163.11 70.61L163.697 71.1472L166.213 68.4048L165.626 67.8677Z" fill="#C82021"/>
<path d="M165.834 65.5266L163.318 68.269L163.904 68.8061L166.421 66.0638L165.834 65.5266Z" fill="#C82021"/>
<path d="M215.668 91.318H180.52V62.8363H215.668V91.318ZM181.865 89.9666H214.316V64.1876H181.865V89.9666Z" fill="#2F3C53"/>
<path d="M207.178 69.4499H180.902V70.2448H207.178V69.4499Z" fill="#2F3C53"/>
<path d="M214.554 71.9618H188.279V72.7568H214.554V71.9618Z" fill="#2F3C53"/>
<path d="M207.178 75.2051H180.902V76H207.178V75.2051Z" fill="#2F3C53"/>
<path d="M214.554 77.7091H188.279V78.504H214.554V77.7091Z" fill="#2F3C53"/>
<path d="M207.178 80.9523H180.902V81.7472H207.178V80.9523Z" fill="#2F3C53"/>
<path d="M214.554 83.4563H188.279V84.2512H214.554V83.4563Z" fill="#2F3C53"/>
<path d="M97.4668 55.5469H96.114V90.9603H97.4668V55.5469Z" fill="#2F3C53"/>
<path d="M238.363 96H92V90.1256H238.363V96ZM93.3528 94.6486H237.011V91.477H93.3528V94.6486Z" fill="#2F3C53"/>
<path d="M120.52 52.3911H96.878V34.8394H120.528V52.3911H120.52ZM97.6658 51.5962H119.724V35.6343H97.6737V51.5962H97.6658Z" fill="#2F3C53"/>
</g>
<g clip-path="url(#clip2_937_316)">
<path d="M304.483 91.5664H339.518V57.7234H338.175V90.226H305.834V24.3483H338.175V26.9419H339.518V23H304.483V91.5664Z" fill="#2F3C53"/>
<path d="M307.765 57.8899H349.221V26.5215H307.765V57.8899ZM347.87 56.5416H309.116V27.8698H347.87V56.5416Z" fill="#2F3C53"/>
<path d="M308.639 53.2025H348.744V54.5508H308.639V53.2025Z" fill="#2F3C53"/>
<path d="M308.639 29.1389H348.744V30.4872H308.639V29.1389Z" fill="#2F3C53"/>
<path d="M310.737 52.2587H327.988V31.1138H310.737V52.2587ZM327.193 51.4656H311.531V31.9069H327.193V51.4656Z" fill="#C82021"/>
<path d="M329.704 52.2587H346.956V31.1138H329.704V52.2587ZM346.161 51.4656H330.499V31.9069H346.161V51.4656Z" fill="#C82021"/>
<path d="M263.965 91.1064H305.421V59.7379H263.965V91.1064ZM304.07 89.758H265.316V61.0863H304.07V89.758Z" fill="#2F3C53"/>
<path d="M264.831 86.7045H304.936V87.4976H264.831V86.7045Z" fill="#2F3C53"/>
<path d="M264.831 83.4368H304.936V84.2299H264.831V83.4368Z" fill="#2F3C53"/>
<path d="M264.831 80.1691H304.936V80.9622H264.831V80.1691Z" fill="#2F3C53"/>
<path d="M264.831 76.9013H304.936V77.6945H264.831V76.9013Z" fill="#2F3C53"/>
<path d="M264.831 73.6257H304.936V74.4188H264.831V73.6257Z" fill="#2F3C53"/>
<path d="M264.831 70.358H304.936V71.1511H264.831V70.358Z" fill="#2F3C53"/>
<path d="M264.831 67.0903H304.936V67.8834H264.831V67.0903Z" fill="#2F3C53"/>
<path d="M264.831 63.8226H304.936V64.6157H264.831V63.8226Z" fill="#2F3C53"/>
<path d="M313.47 91.3047H325.334V67.59H313.47V91.3047ZM323.983 89.9563H314.821V68.9383H323.983V89.9563Z" fill="#2F3C53"/>
<path d="M254 96H352.367V90.1387H254V96ZM351.016 94.6517H255.351V91.4871H351.016V94.6517Z" fill="#2F3C53"/>
<path d="M277.601 59.8966H278.951V27.8857H305.293V26.5374H277.601V59.8966Z" fill="#2F3C53"/>
<path d="M333.551 37.0123L336.894 40.3492L336.332 40.91L332.989 37.5731L333.551 37.0123Z" fill="#C82021"/>
<path d="M333.277 34.1522L336.62 37.4892L336.058 38.05L332.715 34.7131L333.277 34.1522Z" fill="#C82021"/>
<path d="M314.988 36.7415L318.331 40.0785L317.769 40.6393L314.426 37.3024L314.988 36.7415Z" fill="#C82021"/>
<path d="M314.714 33.8782L318.057 37.2151L317.495 37.776L314.152 34.439L314.714 33.8782Z" fill="#C82021"/>
<path d="M282.766 52.5363H300.573V30.8362H282.766V52.5363ZM299.222 51.188H284.117V32.1845H299.222V51.1959V51.188Z" fill="#C82021"/>
<path d="M263.822 59.8966H265.173V55.3995H305.293V54.0512H263.822V59.8966Z" fill="#2F3C53"/>
<path d="M268.597 54.7253H269.948V60.1742H268.597V54.7253Z" fill="#2F3C53"/>
<path d="M274.056 54.7253H275.407V60.1742H274.056V54.7253Z" fill="#2F3C53"/>
<path d="M279.516 54.7253H280.866V60.1742H279.516V54.7253Z" fill="#2F3C53"/>
<path d="M284.967 54.7253H286.318V60.1742H284.967V54.7253Z" fill="#2F3C53"/>
<path d="M290.426 54.7253H291.777V60.1742H290.426V54.7253Z" fill="#2F3C53"/>
<path d="M295.885 54.7253H297.236V60.1742H295.885V54.7253Z" fill="#2F3C53"/>
<path d="M301.344 54.7253H302.695V60.1742H301.344V54.7253Z" fill="#2F3C53"/>
<path d="M286.065 36.1914L289.408 39.5283L288.846 40.0891L285.503 36.7522L286.065 36.1914Z" fill="#C82021"/>
<path d="M285.791 33.3392L289.134 36.6762L288.572 37.237L285.229 33.9001L285.791 33.3392Z" fill="#C82021"/>
<path d="M329.585 62.0856H338.588V63.4339H329.585V62.0856Z" fill="#2F3C53"/>
<path d="M322.894 64.6712H333.129V66.0196H322.894V64.6712Z" fill="#2F3C53"/>
<path d="M348.482 81.8188C353.178 81.8188 357 78.0038 357 73.3164C357 68.629 353.178 64.814 348.482 64.814C343.785 64.814 339.963 68.629 339.963 73.3164C339.963 78.0038 343.785 81.8188 348.482 81.8188Z" fill="#4AC0B3"/>
<path d="M347.464 90.6781H348.815V76.9331L351.549 74.1968L350.595 73.245L347.464 76.3699V90.6781Z" fill="#2F3C53"/>
<path d="M346.426 77.5328L348.747 79.849L347.792 80.8024L345.471 78.4862L346.426 77.5328Z" fill="#2F3C53"/>
</g>
<g clip-path="url(#clip3_937_316)">
<path d="M389.265 83.2147C387.082 83.2147 384.907 82.3831 383.248 80.712C380.986 78.4332 381.676 75.8025 382.335 73.2519C382.684 71.9006 383.049 70.5093 383.049 69.0621C383.049 65.6478 386.177 63.8568 389.265 63.8568C392.353 63.8568 395.48 65.6478 395.48 69.0621C395.48 70.5093 395.845 71.9006 396.194 73.2519C396.853 75.8025 397.544 78.4332 395.282 80.712C393.623 82.3831 391.44 83.2147 389.265 83.2147Z" fill="#4AC0B3"/>
<path d="M390.17 90.6988H388.828V76.834L386.09 74.0834L387.042 73.1239L390.17 76.2743V90.6988Z" fill="#2F3C53"/>
<path d="M391.202 77.4496L388.884 79.7847L389.838 80.7458L392.156 78.4108L391.202 77.4496Z" fill="#2F3C53"/>
<path d="M424.604 60.3866H380.128V26.2124H424.612V60.3866H424.604ZM381.47 59.0273H423.254V27.5717H381.47V59.0273Z" fill="#2F3C53"/>
<path d="M451.664 59.8669H450.314V27.5957H421.405V26.2364H451.664V59.8669Z" fill="#2F3C53"/>
<path d="M421.826 56.1808H409.879V30.1624H421.826V56.1808ZM410.673 55.3812H421.032V30.9619H410.673V55.3812Z" fill="#C82021"/>
<path d="M419.46 35.095L416.948 37.8521L417.533 38.3927L420.045 35.6356L419.46 35.095Z" fill="#C82021"/>
<path d="M419.668 32.7424L417.157 35.5009L417.742 36.0412L420.253 33.2827L419.668 32.7424Z" fill="#C82021"/>
<path d="M408.625 56.1808H396.679V30.1624H408.625V56.1808ZM397.472 55.3812H407.831V30.9619H397.472V55.3812Z" fill="#C82021"/>
<path d="M406.264 35.0974L403.753 37.8546L404.337 38.3952L406.849 35.638L406.264 35.0974Z" fill="#C82021"/>
<path d="M406.469 32.7416L403.959 35.5001L404.544 36.0404L407.054 33.2819L406.469 32.7416Z" fill="#C82021"/>
<path d="M395.424 56.1808H383.478V30.1624H395.424V56.1808ZM384.272 55.3812H394.631V30.9619H384.272V55.3812Z" fill="#C82021"/>
<path d="M393.066 35.094L390.555 37.8512L391.139 38.3918L393.651 35.6346L393.066 35.094Z" fill="#C82021"/>
<path d="M393.271 32.7488L390.761 35.5073L391.346 36.0476L393.856 33.2891L393.271 32.7488Z" fill="#C82021"/>
<path d="M446.512 52.4467H428.724V30.5701H446.512V52.4467ZM430.073 51.0874H445.163V31.9294H430.073V51.0874Z" fill="#2F3C53"/>
<path d="M465.428 59.8669H464.086V55.3252H424.001V53.9659H465.428V59.8669Z" fill="#2F3C53"/>
<path d="M460.665 54.6456H459.316V60.1387H460.665V54.6456Z" fill="#2F3C53"/>
<path d="M455.212 54.6456H453.863V60.1387H455.212V54.6456Z" fill="#2F3C53"/>
<path d="M449.759 54.6456H448.409V60.1387H449.759V54.6456Z" fill="#2F3C53"/>
<path d="M444.305 54.6456H442.956V60.1387H444.305V54.6456Z" fill="#2F3C53"/>
<path d="M438.852 54.6456H437.503V60.1387H438.852V54.6456Z" fill="#2F3C53"/>
<path d="M433.399 54.6456H432.049V60.1387H433.399V54.6456Z" fill="#2F3C53"/>
<path d="M427.954 54.6456H426.604V60.1387H427.954V54.6456Z" fill="#2F3C53"/>
<path d="M443.218 35.9687L439.879 39.3328L440.44 39.8982L443.78 36.5341L443.218 35.9687Z" fill="#2F3C53"/>
<path d="M443.486 33.0878L440.147 36.4519L440.708 37.0172L444.048 33.6532L443.486 33.0878Z" fill="#2F3C53"/>
<path d="M453.204 27.2599H377.358V20.6793L401.537 4L453.204 20.5434V27.2679V27.2599ZM378.707 25.9006H451.854V21.5269L401.751 5.49522L378.707 21.3989V25.9086V25.9006Z" fill="#2F3C53"/>
<path d="M499.187 91.5863H403.553V59.1392H499.195V91.5863H499.187ZM404.894 90.227H497.838V60.4985H404.902V90.227H404.894Z" fill="#2F3C53"/>
<path d="M433.47 91.0746H414.055V67.167H433.47V91.0746ZM415.404 89.7153H432.121V68.5263H415.404V89.7153Z" fill="#2F3C53"/>
<path d="M424.445 68.0386H423.096V89.9951H424.445V68.0386Z" fill="#2F3C53"/>
<path d="M479.256 89.0676H466.754V62.4895H479.256V89.0676ZM468.103 87.7083H477.906V63.8488H468.103V87.7083Z" fill="#2F3C53"/>
<path d="M476.617 67.7071L474.107 70.4656L474.692 71.0059L477.202 68.2474L476.617 67.7071Z" fill="#2F3C53"/>
<path d="M476.819 65.3342L474.308 68.0913L474.892 68.6319L477.404 65.8748L476.819 65.3342Z" fill="#2F3C53"/>
<path d="M493.845 89.0676H481.343V62.4895H493.845V89.0676ZM482.693 87.7083H492.496V63.8488H482.693V87.7083Z" fill="#2F3C53"/>
<path d="M491.207 67.7079L488.696 70.4664L489.281 71.0067L491.792 68.2482L491.207 67.7079Z" fill="#2F3C53"/>
<path d="M491.406 65.3322L488.895 68.0893L489.48 68.6299L491.991 65.8728L491.406 65.3322Z" fill="#2F3C53"/>
<path d="M518 96H372V90.0911H518V96ZM373.349 94.6407H516.651V91.4504H373.349V94.6407Z" fill="#2F3C53"/>
<path d="M450.164 69.3659H438.971V70.1655H450.164V69.3659Z" fill="#2F3C53"/>
<path d="M450.164 77.2178H438.971V78.0174H450.164V77.2178Z" fill="#2F3C53"/>
<path d="M455.553 73.3878H444.361V74.1874H455.553V73.3878Z" fill="#2F3C53"/>
</g>
<g clip-path="url(#clip4_937_316)">
<path d="M540.002 81.6145C535.682 81.6145 533 78.3407 533 73.0756C533 67.8105 535.682 64.5367 540.002 64.5367C544.322 64.5367 547.004 67.8105 547.004 73.0756C547.004 78.3407 544.322 81.6145 540.002 81.6145Z" fill="#4AC0B3"/>
<path d="M591.344 29.489H590.541V51.362H591.344V29.489Z" fill="#C82021"/>
<path d="M600.482 52.1585H581.403V28.8996H600.482V52.1585ZM582.206 51.362H599.679V29.6961H582.206V51.362Z" fill="#C82021"/>
<path d="M610.398 91.0455H547.895V58.5308H549.332V89.6197H608.961V16.4258H549.332V20.8944H547.895V15H610.398V91.0455Z" fill="#2F3C53"/>
<path d="M606.52 55.7828H564.629V24.2797H606.52V55.7828ZM565.994 54.4287H605.155V25.6338H565.994V54.4287Z" fill="#2F3C53"/>
<path d="M605.645 51.0832H565.119V52.4373H605.645V51.0832Z" fill="#2F3C53"/>
<path d="M605.645 45.1729H565.119V46.527H605.645V45.1729Z" fill="#2F3C53"/>
<path d="M584.591 90.4641H552.295V67.2051H584.591V90.4641ZM553.098 89.6675H583.788V68.0017H553.098V89.6675Z" fill="#2F3C53"/>
<path d="M562.236 67.8025H561.433V89.6755H562.236V67.8025Z" fill="#2F3C53"/>
<path d="M573.679 67.8025H572.876V89.6755H573.679V67.8025Z" fill="#2F3C53"/>
<path d="M570.37 45.9774H569.005V51.6248H570.37V45.9774Z" fill="#2F3C53"/>
<path d="M578.183 45.9774H576.818V51.6248H578.183V45.9774Z" fill="#2F3C53"/>
<path d="M585.996 45.9774H584.631V51.6248H585.996V45.9774Z" fill="#2F3C53"/>
<path d="M595.792 45.9774H594.427V51.6248H595.792V45.9774Z" fill="#2F3C53"/>
<path d="M603.605 45.9774H602.24V51.6248H603.605V45.9774Z" fill="#2F3C53"/>
<path d="M613 96H534.959V90.1136H613V96ZM536.324 94.6459H611.635V91.4677H536.316V94.6459H536.324Z" fill="#2F3C53"/>
<path d="M604.464 90.5915H592.42V66.6953H604.464V90.5915ZM594.026 88.9984H602.858V68.2884H594.026V88.9984Z" fill="#2F3C53"/>
<path d="M541.03 90.5119H539.665V76.7078L536.902 73.9677L537.866 73.0119L541.03 76.1503V90.5119Z" fill="#2F3C53"/>
<path d="M542.072 77.3105L539.727 79.6367L540.693 80.5942L543.038 78.268L542.072 77.3105Z" fill="#2F3C53"/>
<path d="M609.282 58.8415H543.527V20.3926H609.082V21.8024H544.948V57.4316H609.282V58.8415Z" fill="#2F3C53"/>
<path d="M555.483 42.3372H547.253V25.1399H555.483V42.3372ZM548.056 41.5407H554.68V25.9365H548.056V41.5407Z" fill="#C82021"/>
<path d="M579.572 63.7083H552.071V64.5049H579.572V63.7083Z" fill="#2F3C53"/>
<path d="M609.483 60.323H593.022V61.1196H609.483V60.323Z" fill="#2F3C53"/>
<path d="M571.543 80.2365H569.736V81.033H571.543V80.2365Z" fill="#2F3C53"/>
<path d="M553.676 44.1931H544.242V44.9897H553.676V44.1931Z" fill="#2F3C53"/>
<path d="M562.308 47.3793H556.286V48.1758H562.308V47.3793Z" fill="#2F3C53"/>
</g>
<g clip-path="url(#clip5_937_316)">
<path d="M635.085 81.8614C630.644 81.8614 628 77.7068 628 70.7481C628 63.7894 630.652 59.6347 635.085 59.6347C639.518 59.6347 642.17 63.7894 642.17 70.7481C642.17 77.7068 639.518 81.8614 635.085 81.8614Z" fill="#4AC0B3"/>
<path d="M705.114 91.087H642.945V58.8527H644.367V89.6732H703.684V51.744H705.114V91.087Z" fill="#2F3C53"/>
<path d="M705.114 29.7542H703.684V16.832L672.396 1.59552L644.367 16.8083V21.5317H642.945V15.971L672.356 0L705.114 15.9473V29.7542Z" fill="#2F3C53"/>
<path d="M701.256 56.1277H659.591V24.8886H701.256V29.7542H699.898V26.2314H660.941V54.7849H699.898V50.6855H701.256V56.1277Z" fill="#2F3C53"/>
<path d="M707.702 96H630.069V90.1629H707.702V96ZM631.427 94.6572H706.344V91.5057H631.427V94.6572Z" fill="#2F3C53"/>
<path d="M699.211 90.6447H687.229V66.9488H699.211V90.6447ZM688.827 89.065H697.613V68.5285H688.827V89.065Z" fill="#2F3C53"/>
<path d="M680.847 49.793H660.207V50.5829H680.847V49.793Z" fill="#2F3C53"/>
<path d="M680.424 46.5387H660.207V47.3286H680.424V46.5387Z" fill="#2F3C53"/>
<path d="M699.866 52.8577H660.207V53.6475H699.866V52.8577Z" fill="#2F3C53"/>
<path d="M680.424 43.2845H660.207V44.0744H680.424V43.2845Z" fill="#2F3C53"/>
<path d="M680.424 40.0303H660.207V40.8201H680.424V40.0303Z" fill="#2F3C53"/>
<path d="M680.424 36.776H660.207V37.5659H680.424V36.776Z" fill="#2F3C53"/>
<path d="M680.424 33.5218H660.207V34.3117H680.424V33.5218Z" fill="#2F3C53"/>
<path d="M660.209 30.2649L660.203 31.0548L680.818 31.2093L680.824 30.4195L660.209 30.2649Z" fill="#2F3C53"/>
<path d="M700.521 27.0054H660.207V27.7953H700.521V27.0054Z" fill="#2F3C53"/>
<path d="M636.108 90.5657H634.75V76.8695L632.002 74.1524L632.96 73.2045L636.108 76.3166V90.5657Z" fill="#2F3C53"/>
<path d="M637.152 77.4727L634.819 79.7794L635.78 80.7289L638.112 78.4222L637.152 77.4727Z" fill="#2F3C53"/>
<path d="M704.003 59.1529H638.592V21.0262H703.804V22.4321H640.006V57.7548H704.003V59.1529Z" fill="#2F3C53"/>
<path d="M650.485 42.7948H642.298V25.7416H650.485V42.7948ZM643.097 42.0049H649.687V26.5315H643.097V42.0049Z" fill="#C82021"/>
<path d="M674.449 63.9868H647.091V64.7767H674.449V63.9868Z" fill="#2F3C53"/>
<path d="M704.203 60.6299H687.828V61.4198H704.203V60.6299Z" fill="#2F3C53"/>
<path d="M648.688 44.6352H639.303V45.425H648.688V44.6352Z" fill="#2F3C53"/>
<path d="M657.275 47.7946H651.284V48.5845H657.275V47.7946Z" fill="#2F3C53"/>
<path d="M727 52.2653H679.768V29.6199H727V52.2653ZM681.366 50.6855H725.402V31.1996H681.366V50.6855Z" fill="#2F3C53"/>
<path d="M721.84 49.6429H713.652V41.8707H721.84V49.6429ZM714.451 48.8531H721.041V42.6605H714.451V48.8531Z" fill="#2F3C53"/>
<path d="M721.84 40.6859H713.652V32.9136H721.84V40.6859ZM714.451 39.896H721.041V33.7035H714.451V39.896Z" fill="#2F3C53"/>
<path d="M696.135 79.2549H694.274V80.0448H696.135V79.2549Z" fill="#2F3C53"/>
<path d="M684.154 86.6243H647.81V67.012H684.154V86.6243ZM648.608 85.8345H683.355V67.8019H648.608V85.8345Z" fill="#C82021"/>
<path d="M665.918 67.2727H665.119V86.0951H665.918V67.2727Z" fill="#C82021"/>
<path d="M678.947 68.8452L676.552 71.2133L677.117 71.7718L679.512 69.4037L678.947 68.8452Z" fill="#C82021"/>
<path d="M648.863 27.2402L646.468 29.6083L647.033 30.1668L649.427 27.7987L648.863 27.2402Z" fill="#C82021"/>
<path d="M648.589 29.3557L646.194 31.7238L646.759 32.2824L649.154 29.9142L648.589 29.3557Z" fill="#C82021"/>
<path d="M718.755 34.0867L716.359 36.454L716.924 37.0127L719.32 34.6455L718.755 34.0867Z" fill="#2F3C53"/>
<path d="M718.478 36.1973L716.083 38.5654L716.648 39.1239L719.043 36.7558L718.478 36.1973Z" fill="#2F3C53"/>
<path d="M718.751 43.1721L716.356 45.5402L716.921 46.0987L719.315 43.7306L718.751 43.1721Z" fill="#2F3C53"/>
<path d="M718.479 45.2742L716.085 47.6423L716.649 48.2008L719.044 45.8327L718.479 45.2742Z" fill="#2F3C53"/>
<path d="M680.01 70.0194L677.813 72.192L678.378 72.7505L680.575 70.5779L680.01 70.0194Z" fill="#C82021"/>
</g>
<defs>
<clipPath id="clip0_937_316">
<rect width="77" height="80" fill="white" transform="translate(0 16)"/>
</clipPath>
<clipPath id="clip1_937_316">
<rect width="147" height="75" fill="white" transform="translate(92 21)"/>
</clipPath>
<clipPath id="clip2_937_316">
<rect width="103" height="73" fill="white" transform="matrix(-1 0 0 1 357 23)"/>
</clipPath>
<clipPath id="clip3_937_316">
<rect width="146" height="92" fill="white" transform="translate(372 4)"/>
</clipPath>
<clipPath id="clip4_937_316">
<rect width="80" height="81" fill="white" transform="translate(533 15)"/>
</clipPath>
<clipPath id="clip5_937_316">
<rect width="99" height="96" fill="white" transform="translate(628)"/>
</clipPath>
</defs>
</svg>
