<svg width="30" height="30" viewBox="0 0 30 30" fill="none" xmlns="http://www.w3.org/2000/svg">
<path d="M24.2958 28.1237H5.70305C4.31603 28.1237 3.18756 26.9953 3.18756 25.6083V12.3735C3.18756 11.8903 3.57927 11.4985 4.06251 11.4985C4.54576 11.4985 4.93747 11.8903 4.93747 12.3735V25.6083C4.93747 26.0304 5.28089 26.3738 5.70305 26.3738H24.2958C24.718 26.3738 25.0614 26.0304 25.0614 25.6083V12.3735C25.0614 11.8903 25.4531 11.4985 25.9363 11.4985C26.4196 11.4985 26.8113 11.8903 26.8113 12.3735V25.6083C26.8113 26.9953 25.6829 28.1237 24.2958 28.1237Z" fill="#565656"/>
<path d="M28.1251 15.4351C27.9011 15.4351 27.6773 15.3497 27.5064 15.1788L16.6248 4.29731C15.7293 3.40179 14.2723 3.40179 13.3767 4.29731L2.49517 15.1789C2.1535 15.5206 1.59949 15.5206 1.25782 15.1789C0.916095 14.8372 0.916095 14.2832 1.25782 13.9415L12.1394 3.05991C13.7172 1.48215 16.2844 1.48215 17.8621 3.05991L28.7437 13.9415C29.0854 14.2832 29.0854 14.8372 28.7437 15.1788C28.5729 15.3497 28.349 15.4351 28.1251 15.4351Z" fill="#565656"/>
<path d="M18.499 28.1233H11.4993C11.0161 28.1233 10.6244 27.7315 10.6244 27.2483V19.4831C10.6244 17.9755 11.851 16.7489 13.3586 16.7489H16.6397C18.1473 16.7489 19.3739 17.9755 19.3739 19.4831V27.2483C19.3739 27.7315 18.9822 28.1233 18.499 28.1233ZM12.3743 26.3734H17.624V19.4831C17.624 18.9404 17.1824 18.4988 16.6397 18.4988H13.3586C12.8159 18.4988 12.3743 18.9404 12.3743 19.4831V26.3734Z" fill="#565656"/>
</svg>
