<svg width="30" height="30" viewBox="0 0 30 30" fill="none" xmlns="http://www.w3.org/2000/svg">
<path d="M26.9927 14.8009V16.4325H3.0225C3.0225 13.6119 2.99646 10.7654 3.04854 7.92747C3.04854 7.61504 3.37832 7.25922 3.64736 7.01622C5.26157 5.60161 6.90182 4.23039 8.51604 2.81579C9.42729 2.03471 10.2865 2.00868 11.1977 2.79843C12.8206 4.20436 14.4869 5.54954 16.049 7.00754C16.4396 7.37204 16.6913 8.05765 16.7173 8.6044C16.7954 10.6005 16.752 12.5965 16.752 14.7054H21.8116V10.748L18.5658 11.503V10.045C19.6073 9.48093 20.666 9.07304 21.4905 8.38743C21.8897 8.05765 21.855 7.18979 22.072 6.30457C21.2996 6.63436 20.8136 6.89472 20.3015 7.05093C19.7635 7.21582 19.1994 7.27657 18.5485 7.40675V5.67104C20.7615 5.51482 21.8463 4.24775 21.9418 2H23.5473C23.6862 4.14361 24.6842 5.50614 26.984 5.67104V7.49354L23.7035 6.53022C23.5126 8.63043 24.0507 9.18586 26.9927 9.80204V11.4596L23.6688 10.7567V14.7922H26.984L26.9927 14.8009ZM12.4561 14.7228H15.0336C15.0336 12.7267 15.051 10.8348 15.0163 8.93418C15.0163 8.63043 14.8948 8.2399 14.6778 8.05765C13.1157 6.67775 11.5188 5.34125 9.87857 3.944C8.23832 5.34125 6.67618 6.65172 5.14007 7.98822C4.94914 8.15311 4.74954 8.45686 4.74954 8.69118C4.71482 10.7133 4.73218 12.7441 4.73218 14.7402H7.30104C7.30104 13.4904 7.28368 12.3101 7.30104 11.1299C7.32707 9.6545 7.34443 9.66318 10.3993 9.6545C11.4841 9.6545 12.5776 9.51565 12.4648 11.1733C12.3867 12.3101 12.4474 13.447 12.4474 14.7141L12.4561 14.7228ZM9.08882 14.7228H10.6336V11.451H9.08882V14.7228Z" fill="#565656"/>
<path d="M26.864 21.6739C26.0482 21.2921 25.2324 21.0577 24.5815 20.5804C23.5401 19.8254 22.6375 19.7907 21.5874 20.5457C19.7736 21.8562 18.3069 21.8475 16.4931 20.537C15.5037 19.8167 14.6185 19.808 13.6205 20.511C11.7025 21.8735 10.366 21.8562 8.40467 20.4763C7.4587 19.808 6.6082 19.8254 5.64488 20.4676C4.92456 20.9449 4.10009 21.2574 3.11073 21.752L3.00659 20.0771C3.6922 19.6431 4.30838 19.2352 4.95059 18.8621C6.46067 17.9855 7.97074 17.9682 9.35931 19.0704C10.5222 19.999 11.5376 19.9382 12.7092 19.0704C14.2974 17.8901 15.8682 17.9161 17.4564 19.1224C18.5239 19.9382 19.4872 19.9556 20.572 19.1832C22.4466 17.8467 23.6616 17.8901 25.6577 19.2613C26.6181 19.9209 27.026 20.7222 26.8814 21.6652L26.864 21.6739Z" fill="#565656"/>
<path d="M3.04739 26.0657V24.3213C3.6896 23.9307 4.30578 23.5142 4.95667 23.1497C6.41467 22.3078 7.89871 22.2384 9.23521 23.2972C10.4329 24.2345 11.4743 24.2866 12.7066 23.358C14.2775 22.1777 15.857 22.2211 17.4538 23.4274C18.53 24.2432 19.4933 24.2432 20.5694 23.4708C22.3833 22.1777 23.7371 22.2037 25.5509 23.4708C26.5808 24.194 27.0147 25.0271 26.8527 25.9702C26.0022 25.5536 25.1691 25.2412 24.4488 24.7639C23.4854 24.1303 22.6349 24.0956 21.6803 24.7639C19.6321 26.1785 18.4692 26.1611 16.3516 24.7292C15.4491 24.1217 14.6159 24.1217 13.7047 24.7292C11.5697 26.1698 10.4068 26.1785 8.37603 24.7639C7.43007 24.1043 6.57089 24.1303 5.60757 24.7639C4.88724 25.2412 4.0541 25.5536 3.03003 26.057L3.04739 26.0657Z" fill="#565656"/>
</svg>
