<svg width="168" height="23" viewBox="0 0 168 23" fill="none" xmlns="http://www.w3.org/2000/svg">
<path d="M8.38 22.48C3.85 22.48 0.22 19.69 0.22 14.47V0.729998H4.36V14.17C4.36 16.96 5.92 18.43 8.38 18.43C10.9 18.43 12.43 16.96 12.43 14.17V0.729998H16.57V14.47C16.57 19.69 12.94 22.48 8.38 22.48ZM29.7843 7.18V11.2C29.3343 11.11 28.9443 11.08 28.5843 11.08C26.5443 11.08 24.7743 12.07 24.7743 15.25V22H20.7843V7.24H24.6543V9.43C25.5543 7.48 27.5943 7.12 28.8543 7.12C29.1843 7.12 29.4843 7.15 29.7843 7.18ZM36.4609 22H32.5909V0.279999H36.5209V8.86C37.1809 7.81 38.8009 6.85 40.9909 6.85C45.3109 6.85 47.8009 10.18 47.8009 14.56C47.8009 19.03 45.0409 22.36 40.8409 22.36C38.8009 22.36 37.2409 21.46 36.4609 20.2V22ZM43.8109 14.59C43.8109 11.89 42.1909 10.42 40.1509 10.42C38.1409 10.42 36.4609 11.89 36.4609 14.59C36.4609 17.26 38.1409 18.79 40.1509 18.79C42.1909 18.79 43.8109 17.29 43.8109 14.59ZM50.0601 17.98C50.0601 15.34 52.0101 13.87 54.4701 13.51L58.1001 12.97C58.9401 12.85 59.2101 12.43 59.2101 11.92C59.2101 10.87 58.4001 10 56.7201 10C54.9801 10 54.0201 11.11 53.9001 12.4L50.3601 11.65C50.6001 9.34 52.7301 6.79 56.6901 6.79C61.3701 6.79 63.1101 9.43 63.1101 12.4V19.66C63.1101 20.44 63.2001 21.49 63.2901 22H59.6301C59.5401 21.61 59.4801 20.8 59.4801 20.23C58.7301 21.4 57.3201 22.42 55.1301 22.42C51.9801 22.42 50.0601 20.29 50.0601 17.98ZM55.9701 19.45C57.6501 19.45 59.2101 18.64 59.2101 16.03V15.37L55.8801 15.88C54.8601 16.03 54.0501 16.6 54.0501 17.74C54.0501 18.61 54.6801 19.45 55.9701 19.45ZM71.122 13.51V22H67.132V7.24H71.002V9.07C71.902 7.54 73.672 6.85 75.262 6.85C78.922 6.85 80.602 9.46 80.602 12.7V22H76.612V13.39C76.612 11.74 75.802 10.45 73.882 10.45C72.142 10.45 71.122 11.8 71.122 13.51Z" fill="#C82021"/>
<path d="M98.2715 22H84.9515V0.729998H98.2715V4.63H89.0915V9.49H97.4015V13.18H89.0915V18.1H98.2715V22ZM100.794 17.89L104.214 17.14C104.304 18.31 105.174 19.39 106.914 19.39C108.234 19.39 108.864 18.7 108.864 17.92C108.864 17.26 108.414 16.72 107.274 16.48L105.324 16.03C102.474 15.4 101.184 13.69 101.184 11.62C101.184 8.98 103.524 6.79 106.704 6.79C110.904 6.79 112.314 9.46 112.494 11.05L109.164 11.8C109.044 10.93 108.414 9.82 106.734 9.82C105.684 9.82 104.844 10.45 104.844 11.29C104.844 12.01 105.384 12.46 106.194 12.61L108.294 13.06C111.204 13.66 112.674 15.43 112.674 17.59C112.674 19.99 110.814 22.45 106.944 22.45C102.504 22.45 100.974 19.57 100.794 17.89ZM120.802 2.83V7.24H123.772V10.78H120.802V16.96C120.802 18.25 121.402 18.67 122.542 18.67C123.022 18.67 123.562 18.61 123.772 18.55V21.85C123.412 22 122.692 22.21 121.522 22.21C118.642 22.21 116.842 20.5 116.842 17.65V10.78H114.172V7.24H114.922C116.482 7.24 117.202 6.22 117.202 4.9V2.83H120.802ZM126.349 17.98C126.349 15.34 128.299 13.87 130.759 13.51L134.389 12.97C135.229 12.85 135.499 12.43 135.499 11.92C135.499 10.87 134.689 10 133.009 10C131.269 10 130.309 11.11 130.189 12.4L126.649 11.65C126.889 9.34 129.019 6.79 132.979 6.79C137.659 6.79 139.399 9.43 139.399 12.4V19.66C139.399 20.44 139.489 21.49 139.579 22H135.919C135.829 21.61 135.769 20.8 135.769 20.23C135.019 21.4 133.609 22.42 131.419 22.42C128.269 22.42 126.349 20.29 126.349 17.98ZM132.259 19.45C133.939 19.45 135.499 18.64 135.499 16.03V15.37L132.169 15.88C131.149 16.03 130.339 16.6 130.339 17.74C130.339 18.61 130.969 19.45 132.259 19.45ZM148.253 2.83V7.24H151.223V10.78H148.253V16.96C148.253 18.25 148.853 18.67 149.993 18.67C150.473 18.67 151.013 18.61 151.223 18.55V21.85C150.863 22 150.143 22.21 148.973 22.21C146.093 22.21 144.293 20.5 144.293 17.65V10.78H141.623V7.24H142.373C143.933 7.24 144.653 6.22 144.653 4.9V2.83H148.253ZM157.376 12.94H163.976C163.916 11.47 162.956 10.03 160.676 10.03C158.606 10.03 157.466 11.59 157.376 12.94ZM164.366 16.78L167.696 17.77C166.946 20.32 164.606 22.45 160.976 22.45C156.926 22.45 153.356 19.54 153.356 14.56C153.356 9.85 156.836 6.79 160.616 6.79C165.176 6.79 167.906 9.7 167.906 14.44C167.906 15.01 167.846 15.61 167.846 15.67H157.286C157.376 17.62 159.026 19.03 161.006 19.03C162.866 19.03 163.886 18.1 164.366 16.78Z" fill="#2B2B2B"/>
</svg>
