<svg width="30" height="30" viewBox="0 0 30 30" fill="none" xmlns="http://www.w3.org/2000/svg">
<path d="M9.75967 5.69974C10.0496 2.58797 12.7361 1.13839 15.4903 2.52999C15.9156 2.74259 16.6017 2.87789 16.9786 2.69427C20.2836 1.03209 23.0282 2.62663 23.0862 6.30856C23.0862 6.72411 23.0862 7.13966 23.0862 7.71949H26.8454V9.59428H23.1828V14.1943C24.4971 15.1703 27.087 14.8901 26.8841 18.0212C25.879 17.538 25.1349 17.0258 24.3135 16.8325C23.521 16.6489 22.458 16.4943 21.8588 16.8712C20.0517 18.0115 18.4088 18.0888 16.6983 16.8229C15.8093 16.1657 14.9588 16.2044 14.0698 16.8808C12.4752 18.0888 10.813 18.0888 9.19916 16.9485C8.19412 16.2334 7.32437 16.185 6.3 16.9388C5.69118 17.3834 4.88908 17.5766 4.13529 17.8955C3.76807 15.8371 6.36765 14.001 8.58068 14.5132C10.4265 14.9481 13.4513 14.8804 15.2391 14.3682C15.2777 14.3586 15.2971 14.3006 15.3551 14.2233V9.66193H4V7.78714H15.384C15.384 6.90772 15.5773 6.11529 15.3261 5.48713C15.0845 4.87831 14.466 4.16318 13.8958 4.03755C13.3256 3.91192 12.2529 4.29848 12.0307 4.76234C11.4895 5.89302 10.7744 5.99932 9.75967 5.7094V5.69974ZM17.3458 9.71025C17.3458 11.3434 17.1622 12.8607 17.4328 14.2909C17.5488 14.8997 18.6021 15.7308 19.2399 15.7308C19.8777 15.7308 20.9698 14.9287 21.0857 14.3296C21.3563 12.851 21.1727 11.2951 21.1727 9.71025H17.3458ZM17.4424 7.60352H21.1147C21.25 4.88797 20.6605 3.81528 19.1433 3.90226C17.713 3.98923 17.2105 5.0426 17.4424 7.60352Z" fill="#565656"/>
<path d="M26.9615 22.805C25.9275 22.3412 25.1254 22.0996 24.4489 21.655C23.5405 21.0655 22.7094 20.9399 21.8107 21.6164C20.1002 22.9113 18.3993 22.8823 16.6888 21.6164C15.8094 20.9592 14.9493 21.0076 14.0603 21.6744C12.4657 22.8823 10.8035 22.8823 9.19933 21.742C8.19429 21.0269 7.3342 20.9689 6.30983 21.7227C5.70101 22.1672 4.90857 22.3605 4.15479 22.6794C3.75857 20.5727 6.49344 18.7076 8.73546 19.3454C9.03504 19.4323 9.37328 19.529 9.60521 19.7223C10.9485 20.8336 12.1565 20.8046 13.6061 19.7319C14.9203 18.7655 16.4762 19.0651 17.7712 20.0218C18.8342 20.7949 19.7426 20.7466 20.8056 19.9928C22.5258 18.7849 25.6086 19.2004 26.7393 20.7853C27.0195 21.1815 26.8746 21.8676 26.9615 22.7954V22.805Z" fill="#565656"/>
<path d="M26.6417 27.4725C25.8976 27.1246 25.1051 26.8444 24.419 26.4095C23.5009 25.82 22.6698 25.7524 21.7808 26.4192C20.1282 27.6658 18.4467 27.6658 16.7845 26.4578C15.8375 25.762 14.9774 25.7717 14.0303 26.4868C12.4358 27.6755 10.7639 27.6562 9.1694 26.4868C8.16436 25.762 7.28494 25.7814 6.27024 26.5255C5.67108 26.9604 4.87864 27.1343 4.11519 27.4436C3.79628 25.2788 6.55049 23.462 8.77318 24.1482C9.2757 24.3028 9.75889 24.5637 10.1841 24.8633C11.1215 25.5398 12.0202 25.6074 12.9576 24.8923C14.5618 23.6746 16.2047 23.6843 17.8186 24.8343C18.8236 25.5494 19.703 25.5398 20.7274 24.8343C22.6022 23.549 25.1534 23.8293 26.6707 25.4915C26.9896 25.8394 26.9026 26.5545 26.9992 27.1053L26.6513 27.4629L26.6417 27.4725Z" fill="#565656"/>
</svg>
